# xmcd
#
# Track frame offsets: 
#        150
#        19350
#        37275
#        51675
#        68212
#        88199
#        105149
#        124274
#        142011
#        160798
#        178385
#        199610
#        217197
#        235572
#
# Disc length: 3374 seconds
#
# Revision: 0
# Processed by: cddbd v1.5.2PL0 Copyright (c) Steve Scherf et al.
# Submitted via: ExactAudioCopy v0.99pb4
#
DISCID=d60d2c0e
DTITLE=ดาวน้อยสอยร็อค - ดาวน้อยสอยร็อค
DYEAR=2008
DGENRE=Country
TTITLE0=ดาวน้อยสอยร็อค
TTITLE1=หยุดใจไว้กับอ้าย
TTITLE2=ช่องว่างหัวใจ
TTITLE3=ความหวังของคนบ่สวย
TTITLE4=กรุณารับสายหน่อย
TTITLE5=ใจเราหรือเปล่านี่
TTITLE6=เขาลวงก็ควรลืม
TTITLE7=ชายในดวงใจ
TTITLE8=ฮักอ้ายยามใด๋กะได้
TTITLE9=รักจริงหรือเปล่า
TTITLE10=ลืมน้องสาพี่
TTITLE11=ใจมันหักป๊าบ
TTITLE12=สาวหมอลำ
TTITLE13=ผ้าหมี่ทอมือ
EXTD=
EXTT0=
EXTT1=
EXTT2=
EXTT3=
EXTT4=
EXTT5=
EXTT6=
EXTT7=
EXTT8=
EXTT9=
EXTT10=
EXTT11=
EXTT12=
EXTT13=
PLAYORDER=
